<svg width="48" height="48" viewBox="0 0 48 48" fill="none" xmlns="http://www.w3.org/2000/svg">
<path d="M41.8202 22.24V13.46C41.8202 11.82 40.5802 9.96001 39.0402 9.34001L27.9002 4.78001C25.4002 3.76001 22.5802 3.76001 20.0802 4.78001L8.94018 9.34001C7.42018 9.96001 6.18018 11.82 6.18018 13.46V22.24C6.18018 32.02 13.2802 41.18 22.9802 43.86C23.6402 44.04 24.3602 44.04 25.0202 43.86C34.7202 41.18 41.8202 32.02 41.8202 22.24ZM25.5002 25.74V31C25.5002 31.82 24.8202 32.5 24.0002 32.5C23.1802 32.5 22.5002 31.82 22.5002 31V25.74C20.4802 25.1 19.0002 23.22 19.0002 21C19.0002 18.24 21.2402 16 24.0002 16C26.7602 16 29.0002 18.24 29.0002 21C29.0002 23.24 27.5202 25.1 25.5002 25.74Z" fill="#FEFEFE"/>
</svg>
