<svg width="20" height="20" viewBox="0 0 20 20" fill="none" xmlns="http://www.w3.org/2000/svg">
<path d="M17.5665 7.15005V12.85C17.5665 13.7834 17.0665 14.6501 16.2581 15.1251L11.3081 17.9834C10.4998 18.45 9.4998 18.45 8.68314 17.9834L3.73314 15.1251C2.9248 14.6584 2.4248 13.7917 2.4248 12.85V7.15005C2.4248 6.21672 2.9248 5.35001 3.73314 4.87501L8.68314 2.01669C9.49147 1.55002 10.4915 1.55002 11.3081 2.01669L16.2581 4.87501C17.0665 5.35001 17.5665 6.20838 17.5665 7.15005Z" stroke="#9B8AFB" stroke-width="1.5" stroke-linecap="round" stroke-linejoin="round"/>
<path d="M9.99977 9.16664C11.0721 9.16664 11.9414 8.29731 11.9414 7.22496C11.9414 6.1526 11.0721 5.28333 9.99977 5.28333C8.92742 5.28333 8.05811 6.1526 8.05811 7.22496C8.05811 8.29731 8.92742 9.16664 9.99977 9.16664Z" stroke="#9B8AFB" stroke-width="1.5" stroke-linecap="round" stroke-linejoin="round"/>
<path d="M13.3332 13.8833C13.3332 12.3833 11.8415 11.1666 9.99984 11.1666C8.15817 11.1666 6.6665 12.3833 6.6665 13.8833" stroke="#7A5AF8" stroke-width="1.5" stroke-linecap="round" stroke-linejoin="round"/>
</svg>
